<svg xmlns="http://www.w3.org/2000/svg" xmlns:xlink="http://www.w3.org/1999/xlink" width="372.431" height="372.431" viewBox="0 0 372.431 372.431">
  <defs>
    <clipPath id="clip-path">
      <rect id="사각형_137" data-name="사각형 137" width="263.348" height="286.738" fill="none"/>
    </clipPath>
    <clipPath id="clip-path-2">
      <circle id="타원_7" data-name="타원 7" cx="131.674" cy="131.674" r="131.674" transform="translate(0 186.216) rotate(-45)" fill="none"/>
    </clipPath>
  </defs>
  <g id="그룹_62" data-name="그룹 62" transform="translate(77.352 77.352)">
    <g id="그룹_57" data-name="그룹 57" transform="translate(-22.811 -22.811)">
      <g id="그룹_56" data-name="그룹 56" clip-path="url(#clip-path)">
        <path id="패스_340" data-name="패스 340" d="M263.348,131.674A131.674,131.674,0,1,1,131.674,0,131.674,131.674,0,0,1,263.348,131.674" fill="#ffc9be"/>
      </g>
    </g>
    <g id="그룹_59" data-name="그룹 59" transform="translate(-77.352 -77.352)">
      <g id="그룹_58" data-name="그룹 58" clip-path="url(#clip-path-2)">
        <path id="패스_341" data-name="패스 341" d="M239.812,231.779a18.7,18.7,0,0,0-11.745-16.485c5.68-13.119,1.217-29.864-10.237-38.416a11.11,11.11,0,0,0-4.862-2.34c-3.416-.508-6.712,1.708-8.814,4.449-5.982,7.8-4.661,18.68-4.617,28.51a85.843,85.843,0,0,1-2.9,23.56c-.612,2.175-7.263,20.349-10.821,18.577-1.816-.9-2.476-3.243-2.211-5.254s1.229-3.857,1.846-5.791a29.41,29.41,0,0,0,1.049-9.183,99.594,99.594,0,0,0-10.791-44.024,121.367,121.367,0,0,0-12.56-19.04c-5.274-6.874.747-9.226,4.539-15.506a48.544,48.544,0,0,0,5.821-13.272c1.128-4.54,1.356-9.271,2.549-13.795,1.9-7.187,6.181-8.209,10.512-12.875,3.923-4.227,5.159-12.341,4.6-17.815-.8-7.832-5.753-15.3-13-18.375a13.6,13.6,0,0,0-7.767-1.076,20.491,20.491,0,0,0-6.474,2.906c-3.5,2.09-9.422,7.47-13.751,6.53a17.816,17.816,0,0,1-4.389-1.929,40.408,40.408,0,0,0-18.348-4.621q-3.1-9.84-6.54-19.569c-1.7-4.785-3.11-10.361-7.832-13.092-4.776-2.763-11.229-1.125-15.158,2.751a16.861,16.861,0,0,0-4.852,13.567,4.479,4.479,0,0,1-.1,2.281,4.4,4.4,0,0,1-1.643,1.614,19.867,19.867,0,0,0-6.174,24.012A7.037,7.037,0,0,1,86.2,91.365a5.926,5.926,0,0,1-.685,2.146A72.825,72.825,0,0,0,78.241,124.4c-.161,8.9,2.475,16.2,4.173,24.63,1.4,6.95-3.468,15.395-6.287,21.723-3.6,8.071-7.66,15.926-11.12,24.059-8.959,21.064-11.947,41.957,1.662,61.726,7.337,10.658,8.891,27.446,7.756,40.205-.185,2.083,73.28,1.441,79.908,1.054,22.258-1.3,54.454.732,70.1-18.2,6.959-8.42,9.512-20.842,4.679-30.639a18.7,18.7,0,0,0,10.7-17.18" transform="translate(37.624 42.016)" fill="#b69c79"/>
        <path id="패스_342" data-name="패스 342" d="M240.427,231.369a19.881,19.881,0,0,0-12.521-17.5l.632,1.553a34.287,34.287,0,0,0-4.229-33.464c-3.313-4.417-9.041-10.409-15.153-8.605-6.3,1.861-9.532,8.951-10.583,14.9-1.183,6.692-.483,13.512-.539,20.261a77.65,77.65,0,0,1-2.945,22.139,77.106,77.106,0,0,1-3.831,9.631,43.521,43.521,0,0,1-2.947,5.5,11.3,11.3,0,0,1-1.425,1.834,3.523,3.523,0,0,1-.571.489c-.168.108-.415.193-.36.185-.171.024.05.048-.111-.007.087.03-.417-.262-.534-.366a3.632,3.632,0,0,1-1.038-2,9.131,9.131,0,0,1,.856-4.995,30.723,30.723,0,0,0,1.991-10.992,97.583,97.583,0,0,0-2.627-22.719,102.123,102.123,0,0,0-7.795-21.735,117.3,117.3,0,0,0-12.375-19.158c-1.784-2.34-3.543-4.807-1.9-7.7,1.407-2.477,3.617-4.44,5.2-6.808a50.5,50.5,0,0,0,5.02-9.824,53.44,53.44,0,0,0,2.7-11.452c.542-3.606.962-7.54,2.851-10.737,1.359-2.3,3.463-3.911,5.484-5.593a20.466,20.466,0,0,0,5.517-6.349,26.274,26.274,0,0,0,2.456-8.526,25.976,25.976,0,0,0-3.383-17.081c-3.242-5.267-8.726-9.563-15.019-10.2-6.664-.679-11.724,4.5-17.015,7.662a15.316,15.316,0,0,1-3.9,1.782,6.016,6.016,0,0,1-4.312-.558A66.7,66.7,0,0,0,137.822,76.6a42.275,42.275,0,0,0-10.828-1.553l1.02.776q-2.767-8.786-5.8-17.485c-1.5-4.262-2.667-9.006-5.479-12.633-6.213-8.018-17.935-4.7-22.662,3.11a18.034,18.034,0,0,0-2.4,6.653,17.319,17.319,0,0,0-.183,3.491,15.275,15.275,0,0,1,.161,1.966c-.075.923-.625,1.309-1.317,1.818A20.587,20.587,0,0,0,82.95,72.961a20.87,20.87,0,0,0-.175,12.724,23.225,23.225,0,0,0,1.2,2.913,6.677,6.677,0,0,1,.692,1.783,5.079,5.079,0,0,1-.8,2.811c-1.146,2.5-2.186,5.058-3.089,7.66-3.715,10.7-5.145,22.312-3.093,33.5.5,2.709,1.149,5.386,1.793,8.061a45.823,45.823,0,0,1,1.66,8.029c.275,5.106-2.067,10.128-4.174,14.643-2.394,5.131-4.74,10.283-7.174,15.395-2.544,5.341-5.094,10.687-7.3,16.179-4,9.938-6.878,20.58-6.608,31.371a51.593,51.593,0,0,0,2.607,15.084,52.8,52.8,0,0,0,3.205,7.539c1.3,2.514,2.906,4.805,4.4,7.2,5.106,8.186,6.787,18.323,7.111,27.82q.12,3.523-.041,7.048c-.05,1.086-.161,2.169-.212,3.254a1.389,1.389,0,0,0,.313,1.185,4.148,4.148,0,0,0,2.422.733c3.633.467,7.335.52,10.991.628,12.308.362,24.629.353,36.941.312,9.616-.032,19.244-.029,28.856-.336,6.315-.2,12.635-.484,18.948-.759a150.879,150.879,0,0,0,25.936-2.885c8.075-1.78,16.03-4.79,22.489-10.07a33.22,33.22,0,0,0,12.32-23.643,26.743,26.743,0,0,0-2.589-13.126l-.38,1.447a19.825,19.825,0,0,0,11.226-18.093,1.058,1.058,0,0,0-2.115,0,17.747,17.747,0,0,1-10.178,16.267,1.078,1.078,0,0,0-.379,1.447c4.174,8.643,2.445,19.1-2.727,26.932-4.541,6.873-11.741,11.49-19.374,14.266-15.6,5.675-32.654,5.144-49,5.9-8.091.375-16.189.43-24.29.489-12.334.091-24.671.109-37-.079-4.859-.073-9.721-.164-14.575-.414-1.521-.078-3.045-.164-4.559-.334a7.282,7.282,0,0,1-1.182-.178c-.137-.03-.281-.087-.418-.106-.2-.027.042-.011.149.119.006.008.34.651.262.649.021,0,.132-1.673.139-1.78q.112-1.655.159-3.314.1-3.464-.072-6.928a76.076,76.076,0,0,0-1.938-13.995,46.849,46.849,0,0,0-4.938-12.752c-1.308-2.23-2.849-4.3-4.11-6.567a50.024,50.024,0,0,1-3.4-7.424c-3.509-9.759-3.571-20.234-1.4-30.3,2.368-10.987,7.119-21.186,11.925-31.278,2.36-4.957,4.62-9.958,6.957-14.924,2.065-4.387,4.195-8.922,4.778-13.787.6-4.992-1.34-10.1-2.451-14.912a63.3,63.3,0,0,1-1.794-16.7,67.728,67.728,0,0,1,2.682-16.356,79.826,79.826,0,0,1,2.686-7.741c.508-1.257,1.056-2.5,1.623-3.73a6.54,6.54,0,0,0,.88-3.6,12.292,12.292,0,0,0-1.309-3.423,16.717,16.717,0,0,1-1.014-3.035A18.5,18.5,0,0,1,84.1,77.5a18.973,18.973,0,0,1,5.383-11.3c1.448-1.43,3.884-2.411,4.228-4.608a21.729,21.729,0,0,0-.13-3.434,15.54,15.54,0,0,1,.484-3.9,14.71,14.71,0,0,1,9.16-10.419c4.492-1.545,9.256-.442,12.1,3.5,2.65,3.67,3.781,8.509,5.252,12.729q2.828,8.119,5.4,16.325a1.087,1.087,0,0,0,1.02.776,40.007,40.007,0,0,1,11.356,1.8,38.3,38.3,0,0,1,5.24,2.062,41.89,41.89,0,0,0,5.02,2.418c5.3,1.738,10.424-3.135,14.482-5.82,2.977-1.969,6.246-3.813,9.932-3.488a16.66,16.66,0,0,1,8.929,3.973,22.3,22.3,0,0,1,7.81,15.819c.288,5.771-.913,12.413-5.162,16.612-1.841,1.82-4,3.284-5.828,5.113a16.291,16.291,0,0,0-4.177,7.426c-1.006,3.745-1.312,7.631-2.036,11.432a41.758,41.758,0,0,1-3.8,11.011,44.5,44.5,0,0,1-5.651,8.663c-1.491,1.78-3.162,3.678-3.472,6.069-.412,3.175,1.764,5.685,3.549,8.043,2.2,2.906,4.346,5.854,6.338,8.907a93.886,93.886,0,0,1,10.11,20.8,98.321,98.321,0,0,1,4.9,22.227,82.317,82.317,0,0,1,.428,11.552,24.412,24.412,0,0,1-.714,5.221c-.488,1.847-1.367,3.561-1.849,5.407-.682,2.617-.393,6,2.148,7.559a2.788,2.788,0,0,0,3.437-.5,14.874,14.874,0,0,0,2.993-4.007,59.512,59.512,0,0,0,2.871-5.817,75.685,75.685,0,0,0,3.365-8.724,82.034,82.034,0,0,0,2.938-22.893c.026-6.638-.721-13.433.606-19.995a20.892,20.892,0,0,1,3.949-9.03c2.068-2.569,5.368-4.7,8.752-3.571,2.965.987,5.589,3.576,7.619,5.87a31.369,31.369,0,0,1,4.872,7.5,32.924,32.924,0,0,1,2.913,17.159,28.963,28.963,0,0,1-2.151,8.384,1.083,1.083,0,0,0,.632,1.553,17.69,17.69,0,0,1,10.969,15.465c.057,1.356,2.172,1.364,2.115,0" transform="translate(38.067 42.425)" fill="#201d4b"/>
        <path id="패스_343" data-name="패스 343" d="M109.457,234.831c-1.974-5.183-1.209-8.284-1.357-13.351-.156-5.312-3.429-10.191-4.127-15.442-.553-4.151.293-8.341.673-12.511,1.493-16.387-7.012-33.889-1.07-49.8,4.613-12.351,17.226-19.547,29.09-25.3,4.429-2.147,9.338-4.29,14.117-3.11,4.02.993,7.15,4.207,9.3,7.748s3.524,7.49,5.454,11.153c2.61,4.956,6.223,9.367,8.444,14.508a33.843,33.843,0,0,1,.762,23.654c-4.556,14.011-5.865,24-5.957,38.907a18.465,18.465,0,0,1-.707,6.031c-.806,2.294-2.473,4.162-3.806,6.2-6.708,10.234-8.829,36.015-21.592,41.441-11.166,4.745-26.019-21.726-29.222-30.133" transform="translate(24.627 20.632)" fill="#fff"/>
        <path id="패스_344" data-name="패스 344" d="M140.276,115.541c-.721,2.339-2.12,3.985-3.126,3.674s-1.237-2.457-.517-4.8,2.12-3.984,3.126-3.674,1.237,2.457.517,4.8" transform="translate(14.373 21.895)" fill="#201d4b"/>
        <path id="패스_345" data-name="패스 345" d="M137.253,119.459a1.2,1.2,0,0,1-.356-.053c-1.23-.379-1.553-2.631-.75-5.237a8.545,8.545,0,0,1,1.524-2.956c.687-.808,1.414-1.145,2.042-.953,1.23.379,1.553,2.631.75,5.237-.727,2.361-2.053,3.961-3.21,3.961m2.106-8.545a1.79,1.79,0,0,0-1.151.757,7.823,7.823,0,0,0-1.388,2.706c-.687,2.231-.417,4.14.284,4.355s2-1.211,2.684-3.441.417-4.14-.283-4.356a.5.5,0,0,0-.147-.021" transform="translate(14.522 22.042)" fill="#201d4b"/>
        <path id="패스_346" data-name="패스 346" d="M180.188,125.731c-.721,2.339-2.12,3.985-3.126,3.674s-1.237-2.457-.517-4.8,2.12-3.984,3.126-3.674,1.237,2.457.517,4.8" transform="translate(2.603 18.89)" fill="#201d4b"/>
        <path id="패스_347" data-name="패스 347" d="M177.168,129.649a1.2,1.2,0,0,1-.357-.054c-.63-.193-1.039-.881-1.152-1.936a9.416,9.416,0,0,1,1.926-6.256c.687-.808,1.41-1.145,2.042-.953s1.039.881,1.153,1.936a9.423,9.423,0,0,1-1.927,6.256,2.38,2.38,0,0,1-1.685,1.005m2.105-8.545a1.79,1.79,0,0,0-1.151.757,8.73,8.73,0,0,0-1.763,5.723c.079.735.326,1.235.659,1.338s.819-.172,1.3-.735a8.74,8.74,0,0,0,1.763-5.724c-.08-.735-.326-1.235-.659-1.338a.5.5,0,0,0-.147-.021" transform="translate(2.75 19.037)" fill="#201d4b"/>
        <path id="패스_348" data-name="패스 348" d="M156.51,130.543c-1.8.319-4.723,1.083-6.416.037-1.345-.832-2.486-3.126-3.52-4.329a2.109,2.109,0,0,1-.4-.587,1.469,1.469,0,0,1,1.017-1.756c1.85-.647,4.909.6,6.675,1.106,1.592.462,3.291.991,4.318,2.292a2.065,2.065,0,0,1,.416,2.147,2.746,2.746,0,0,1-2.089,1.091" transform="translate(11.456 18.056)" fill="#201d4b"/>
        <path id="패스_349" data-name="패스 349" d="M155.788,129.081c-1.6.289-3.432.848-5.049.384a3.467,3.467,0,0,1-1.674-1.369c-.551-.709-1.015-1.481-1.541-2.208-.2-.281-.685-.676-.78-1-.012-.042-.045.016,0-.1a.637.637,0,0,1,.361-.319,4.188,4.188,0,0,1,2.371.059,40.41,40.41,0,0,1,5.148,1.536,4.342,4.342,0,0,1,2.478,1.749c.5.984-.556,1.134-1.311,1.276a1.068,1.068,0,0,0-.739,1.3,1.081,1.081,0,0,0,1.3.739,3.4,3.4,0,0,0,2.9-2,3.592,3.592,0,0,0-1.426-3.672,9.94,9.94,0,0,0-3.569-1.73c-1.1-.336-2.2-.707-3.315-1.01a9.614,9.614,0,0,0-3.607-.438,2.837,2.837,0,0,0-2.725,2.459c-.063,1.189,1.053,2.165,1.68,3.089a12.984,12.984,0,0,0,2.249,2.808c2.2,1.825,5.277.954,7.808.5a1.067,1.067,0,0,0,.738-1.3,1.081,1.081,0,0,0-1.3-.739" transform="translate(11.897 18.498)" fill="#201d4b"/>
        <path id="패스_350" data-name="패스 350" d="M119.727,197.631c-3.85,4.542-7.653,9.929-6.687,16.2a10.529,10.529,0,0,0,3.548,6.577,8.779,8.779,0,0,0,1.6,1.043c.714.357,1.268.493,1.1,1.4-.3,1.616-.874,3.184-1.175,4.808-1.147,6.194-.661,13.079,3.879,17.859a13.541,13.541,0,0,0,7.133,4.065,10.909,10.909,0,0,0,4.179-.01c1.675-.336,3.148-1.13,4.8-.25a47.818,47.818,0,0,0,4.673,2.644,11.429,11.429,0,0,0,5.287.853,8.32,8.32,0,0,0,7.208-5.372c.443-1.29-1.6-1.845-2.04-.563-.859,2.5-3.54,3.868-6.07,3.861a10.253,10.253,0,0,1-4.266-1.018c-1.369-.639-2.521-1.61-3.854-2.3a5.8,5.8,0,0,0-4.191-.45,14.381,14.381,0,0,1-4.082.687,10.755,10.755,0,0,1-6.63-3c-4.484-4.154-5.045-10.571-4.013-16.285.271-1.5.661-2.97,1.07-4.44.363-1.3.422-2.713-.736-3.636-.943-.752-2.1-1.06-2.98-1.933a7.946,7.946,0,0,1-1.791-2.775c-2.373-6.139,1.728-11.98,5.535-16.473.876-1.032-.613-2.536-1.5-1.5" transform="translate(21.252 -3.635)" fill="#d7d7d7"/>
        <path id="패스_351" data-name="패스 351" d="M125.259,55.6a33.908,33.908,0,0,0,7.2,23.139c.839,1.07,2.327-.436,1.5-1.5A31.746,31.746,0,0,1,127.374,55.6c.093-1.359-2.023-1.353-2.115,0" transform="translate(17.626 38.444)" fill="#90785b"/>
        <path id="패스_352" data-name="패스 352" d="M117.446,80.451a33.321,33.321,0,0,0,7.349,9.556c1.009.909,2.51-.582,1.5-1.5a31.684,31.684,0,0,1-7.018-9.128c-.62-1.212-2.446-.143-1.826,1.068" transform="translate(19.945 31.289)" fill="#90785b"/>
        <path id="패스_353" data-name="패스 353" d="M108.616,94.016a13.047,13.047,0,0,0,8.226,5.385,1.086,1.086,0,0,0,1.3-.739,1.067,1.067,0,0,0-.739-1.3,10.67,10.67,0,0,1-3.977-1.563,11.03,11.03,0,0,1-2.985-2.849A1.085,1.085,0,0,0,109,92.569a1.066,1.066,0,0,0-.379,1.447" transform="translate(22.556 27.286)" fill="#90785b"/>
        <path id="패스_354" data-name="패스 354" d="M203.915,110.484a29.368,29.368,0,0,0,6.28-.215,1.061,1.061,0,0,0,.739-1.3,1.092,1.092,0,0,0-1.3-.739c.152-.021-.157.02-.186.023-.137.017-.273.032-.41.047q-.352.037-.7.066-.735.06-1.472.08a28.116,28.116,0,0,1-2.945-.076,1.063,1.063,0,0,0-1.058,1.058,1.084,1.084,0,0,0,1.058,1.058" transform="translate(-5.28 22.631)" fill="#90785b"/>
        <path id="패스_355" data-name="패스 355" d="M206.4,117.583a24.838,24.838,0,0,0,6.8,2.292,1.082,1.082,0,0,0,1.3-.738,1.07,1.07,0,0,0-.738-1.3,23.032,23.032,0,0,1-6.3-2.079,1.058,1.058,0,1,0-1.068,1.826" transform="translate(-6.174 20.444)" fill="#90785b"/>
        <path id="패스_356" data-name="패스 356" d="M211.573,102.491q1.064,5.313,2.129,10.625c.58,2.892.776,6.208,3.463,7.983,4.678,3.089,11.45.448,14.778-3.416.885-1.027-.6-2.529-1.5-1.5a11.694,11.694,0,0,1-6.336,3.832c-2.029.451-4.556.409-6.224-1.008a5.534,5.534,0,0,1-1.529-3.374c-.3-1.484-.6-2.97-.893-4.455q-.926-4.627-1.854-9.254c-.267-1.333-2.306-.769-2.04.563" transform="translate(-7.843 24.708)" fill="#201d4b"/>
        <path id="패스_357" data-name="패스 357" d="M225.554,338.725a19.9,19.9,0,0,1-11.244,6.689" transform="translate(-8.657 -45.346)" fill="#b69c79"/>
        <path id="패스_358" data-name="패스 358" d="M224.37,337.536a19.119,19.119,0,0,1-10.778,6.416c-1.332.274-.769,2.314.563,2.04a20.974,20.974,0,0,0,11.71-6.961,1.086,1.086,0,0,0,0-1.5,1.066,1.066,0,0,0-1.5,0" transform="translate(-8.221 -44.905)" fill="#201d4b"/>
        <path id="패스_359" data-name="패스 359" d="M127.787,133.944a6.835,6.835,0,0,0,2.237,7.413c2.516,2.153,5.943,2.4,9.092,1.93.838-.126,1.653-.333,2.481-.509a1.6,1.6,0,0,1,1.857.657,18.326,18.326,0,0,0,2.977,3.282,12.114,12.114,0,0,0,8.728,2.509,12.459,12.459,0,0,0,8.664-5.151c.8-1.107-1.038-2.164-1.826-1.068a10.1,10.1,0,0,1-14.175,2.128,13.968,13.968,0,0,1-2.639-2.9A3.59,3.59,0,0,0,141.9,140.6c-1.433.14-2.806.636-4.251.749a10.3,10.3,0,0,1-4.367-.483c-2.5-.916-4.487-3.689-3.451-6.356.493-1.27-1.552-1.82-2.04-.563" transform="translate(16.967 15.252)" fill="#201d4b"/>
      </g>
    </g>
    <g id="그룹_61" data-name="그룹 61" transform="translate(-22.811 -22.811)">
      <g id="그룹_60" data-name="그룹 60" clip-path="url(#clip-path)">
        <path id="패스_360" data-name="패스 360" d="M74.989,257.5c3.18-3.349,6.476-6.781,10.7-8.646s9.658-1.784,12.969,1.434a14.6,14.6,0,0,1,3.471,6.666c1.472,5.2,1.285,10.648,2.3,16,2.129,11.2,5.12,21.844,4.206,33.38-.6,7.535-6.616,16.906-15.629,14.139-8.425-2.586-12.609-18.36-14.649-25.7-.776-2.8-1.733-6.024-4.419-7.121" transform="translate(-21.804 -73.022)" fill="#b69c79"/>
        <path id="패스_361" data-name="패스 361" d="M75.282,257.8c3.566-3.755,7.457-7.937,12.683-9.2a11.652,11.652,0,0,1,6.777.281,8.961,8.961,0,0,1,4.944,5.093c2.389,5.484,2.132,11.671,3.038,17.477.938,6,2.495,11.9,3.475,17.9a81.991,81.991,0,0,1,1.01,9.015,44.387,44.387,0,0,1-.177,8.371,17.041,17.041,0,0,1-5.331,10.381,9.086,9.086,0,0,1-10.368,1.241c-3.147-1.754-5.195-5.107-6.773-8.231a67.51,67.51,0,0,1-4.2-11.053c-.474-1.574-.914-3.157-1.353-4.741a17.312,17.312,0,0,0-2.523-6.06,6.3,6.3,0,0,0-2.463-1.985c-1.235-.541-2.313,1.281-1.068,1.826,2.222.973,3.031,3.38,3.666,5.545.5,1.7.948,3.422,1.448,5.125A75.766,75.766,0,0,0,82.44,310.6c1.694,3.485,3.908,7.06,7.22,9.219a11.118,11.118,0,0,0,11.712.147c3.678-2.246,6.081-6.287,7.211-10.363a29.209,29.209,0,0,0,.823-7.588,69.65,69.65,0,0,0-.627-9.541c-.82-6.318-2.268-12.525-3.5-18.771-1.235-6.271-.97-12.877-3.05-18.967a13.071,13.071,0,0,0-4.366-6.55,11.618,11.618,0,0,0-6.963-2.07c-5.6.044-10.256,3.352-14.117,7.112-1.026,1-2.014,2.036-3,3.075-.938.986.556,2.485,1.5,1.5" transform="translate(-21.349 -72.579)" fill="#201d4b"/>
        <path id="패스_362" data-name="패스 362" d="M184.3,264.392a30.063,30.063,0,0,1-.759,11.419,7.12,7.12,0,0,1-1.611,3.3c-1.254,1.259-3.15,1.539-4.889,1.912-7.28,1.561-9.8,4.559-13.485,10.563-3.851,6.281-8.174,12.461-11.628,18.965-2.54,4.782-3.791,10.9-5.491,16.079-1.909,5.811-3.019,12.933,1.133,17.425,3.609,3.9,9.965,4.048,14.811,1.861s8.577-6.2,12.313-9.987,7.82-7.559,12.932-9.025" transform="translate(-42.68 -77.967)" fill="#b69c79"/>
        <path id="패스_363" data-name="패스 363" d="M182.8,263.971a29.653,29.653,0,0,1-.135,8.4c-.386,2.32-.778,5.377-3.221,6.405-2.021.85-4.323.972-6.4,1.711a16.851,16.851,0,0,0-4.759,2.552c-3.162,2.464-5.128,6.077-7.221,9.414-3,4.79-6.168,9.482-8.977,14.391a47.459,47.459,0,0,0-3.4,7.012c-.9,2.421-1.6,4.908-2.316,7.389-1.288,4.489-3.02,8.92-3.143,13.646-.114,4.372,1.4,8.782,5.233,11.212,3.614,2.29,8.4,2.309,12.35.96,9.65-3.294,14.446-13.439,23.181-18.141a18.129,18.129,0,0,1,3.462-1.424,1.059,1.059,0,0,0-.562-2.04c-9.761,2.889-14.651,12.57-22.912,17.728-3.63,2.267-8.1,3.449-12.291,2.1-4.094-1.316-6.187-5.1-6.341-9.231-.171-4.6,1.515-8.889,2.77-13.235.7-2.433,1.374-4.878,2.2-7.272a42.148,42.148,0,0,1,3.178-6.919c2.665-4.738,5.681-9.262,8.591-13.849,2.127-3.356,4.02-7.129,7.081-9.758a14.459,14.459,0,0,1,4.982-2.687c2.285-.742,4.961-.807,7.036-2.091,2.42-1.5,3.031-4.544,3.479-7.15a31.5,31.5,0,0,0,.238-9.13c-.161-1.335-2.278-1.351-2.115,0" transform="translate(-42.238 -77.546)" fill="#201d4b"/>
        <path id="패스_364" data-name="패스 364" d="M100.338,338.309c.055.109.109.218.159.329.011.025.123.3.038.083.076.2.152.4.218.6a8.588,8.588,0,0,1,.3,1.24c.014.085.036.271.014.08.014.121.027.242.037.363q.025.318.027.638c0,.213-.006.426-.02.638-.006.091-.014.182-.024.273-.006.061-.013.121-.02.181.018-.13.018-.134,0-.01a1.086,1.086,0,0,0,.738,1.3,1.069,1.069,0,0,0,1.3-.739,9.931,9.931,0,0,0-.941-6.044,1.064,1.064,0,0,0-1.447-.379,1.083,1.083,0,0,0-.379,1.447" transform="translate(-29.55 -99.296)" fill="#90785b"/>
        <path id="패스_365" data-name="패스 365" d="M110.906,335.082a17.642,17.642,0,0,1,.545,2.517c-.032-.228.011.094.013.112q.017.148.032.3c.023.23.04.46.054.692.025.429.032.858.026,1.288a1.058,1.058,0,0,0,2.115,0,18.554,18.554,0,0,0-.745-5.467,1.058,1.058,0,0,0-2.04.563" transform="translate(-32.693 -98.417)" fill="#90785b"/>
        <path id="패스_366" data-name="패스 366" d="M164.113,367.862a12.617,12.617,0,0,0-3.685,6.3,1.058,1.058,0,1,0,2.04.562,11.636,11.636,0,0,1,.5-1.59c.008-.018.081-.2.037-.094s.062-.142.06-.136q.078-.175.162-.346.188-.385.405-.756.2-.349.433-.685c.08-.118.164-.234.248-.35l.115-.152c-.066.085-.042.054.011-.011a12.6,12.6,0,0,1,1.172-1.251,1.066,1.066,0,0,0,0-1.5,1.08,1.08,0,0,0-1.5,0" transform="translate(-47.3 -108.391)" fill="#90785b"/>
        <path id="패스_367" data-name="패스 367" d="M151.5,361.377a9.731,9.731,0,0,0-2.726,7.8,1.083,1.083,0,0,0,1.058,1.058c.518-.023,1.125-.469,1.058-1.058a8.58,8.58,0,0,1-.018-1.84c0-.018.025-.219.014-.136s.019-.117.022-.136c.025-.147.053-.293.085-.439a8.764,8.764,0,0,1,.253-.916,6.782,6.782,0,0,1,.687-1.469q.115-.191.24-.376c.068-.1.218-.31.245-.345-.037.047.078-.1.092-.111.048-.057.1-.114.145-.17.111-.126.226-.248.343-.368a1.057,1.057,0,0,0-1.5-1.5" transform="translate(-43.854 -106.478)" fill="#90785b"/>
      </g>
    </g>
  </g>
</svg>
